<svg xmlns="http://www.w3.org/2000/svg" width="258" height="78" viewBox="0 0 258 78" role="img" aria-label="EarlyRead logo">
  <title>EarlyRead logo</title>
  <path d="M 136.00 61.50 L 135.00 61.50 L 134.00 61.50 L 133.00 61.50 L 132.00 61.50 L 131.00 61.50 L 130.50 61.00 L 130.00 60.50 L 129.50 60.00 L 129.50 59.00 L 129.00 58.50 L 128.50 58.00 L 128.00 57.50 L 127.50 57.00 L 127.50 56.00 L 127.00 55.50 L 126.50 55.00 L 126.00 54.50 L 125.50 54.00 L 125.00 53.50 L 124.50 53.00 L 124.50 52.00 L 124.00 51.50 L 123.50 51.00 L 123.00 50.50 L 122.50 50.00 L 122.00 49.50 L 121.50 49.00 L 121.00 48.50 L 120.00 48.50 L 119.00 48.50 L 118.50 49.00 L 118.50 50.00 L 118.50 51.00 L 118.50 52.00 L 118.50 53.00 L 118.50 54.00 L 118.50 55.00 L 118.50 56.00 L 118.50 57.00 L 118.50 58.00 L 118.50 59.00 L 118.50 60.00 L 118.50 61.00 L 118.00 61.50 L 117.00 61.50 L 116.00 61.50 L 115.00 61.50 L 114.50 61.00 L 114.50 60.00 L 114.50 59.00 L 114.50 58.00 L 114.50 57.00 L 114.50 56.00 L 114.50 55.00 L 114.50 54.00 L 114.50 53.00 L 114.50 52.00 L 114.50 51.00 L 114.50 50.00 L 114.50 49.00 L 114.50 48.00 L 114.50 47.00 L 114.50 46.00 L 114.50 45.00 L 115.00 44.50 L 116.00 44.50 L 117.00 44.50 L 118.00 44.50 L 119.00 44.50 L 120.00 44.50 L 121.00 44.50 L 122.00 44.50 L 123.00 44.50 L 124.00 44.50 L 125.00 44.50 L 126.00 44.50 L 126.50 44.00 L 127.00 43.50 L 128.00 43.50 L 129.00 43.50 L 129.50 43.00 L 130.00 42.50 L 130.50 42.00 L 131.00 41.50 L 131.50 41.00 L 131.50 40.00 L 132.00 39.50 L 132.50 39.00 L 132.50 38.00 L 132.50 37.00 L 132.00 36.50 L 131.50 36.00 L 131.50 35.00 L 131.50 34.00 L 131.00 33.50 L 130.50 33.00 L 130.00 32.50 L 129.00 32.50 L 128.50 32.00 L 128.00 31.50 L 127.00 31.50 L 126.00 31.50 L 125.00 31.50 L 124.00 31.50 L 123.00 31.50 L 122.00 31.50 L 121.00 31.50 L 120.00 31.50 L 119.00 31.50 L 118.00 31.50 L 117.00 31.50 L 116.00 31.50 L 115.00 31.50 L 114.00 31.50 L 113.00 31.50 L 112.00 31.50 L 111.00 31.50 L 110.00 31.50 L 109.00 31.50 L 108.00 31.50 L 107.00 31.50 L 106.00 31.50 L 105.00 31.50 L 104.00 31.50 L 103.00 31.50 L 102.00 31.50 L 101.00 31.50 L 100.00 31.50 L 99.00 31.50 L 98.00 31.50 L 97.00 31.50 L 96.00 31.50 L 95.00 31.50 L 94.00 31.50 L 93.00 31.50 L 92.00 31.50 L 91.00 31.50 L 90.00 31.50 L 89.00 31.50 L 88.00 31.50 L 87.00 31.50 L 86.00 31.50 L 85.00 31.50 L 84.00 31.50 L 83.50 32.00 L 83.00 32.50 L 82.50 33.00 L 82.50 34.00 L 82.00 34.50 L 81.50 35.00 L 81.50 36.00 L 81.50 37.00 L 81.00 37.50 L 80.50 38.00 L 80.50 39.00 L 80.50 40.00 L 80.00 40.50 L 79.50 41.00 L 79.00 41.50 L 78.50 41.00 L 78.50 40.00 L 78.50 39.00 L 78.00 38.50 L 77.50 38.00 L 77.50 37.00 L 77.50 36.00 L 77.00 35.50 L 76.50 35.00 L 76.50 34.00 L 76.00 33.50 L 75.50 33.00 L 75.50 32.00 L 75.50 31.00 L 75.00 30.50 L 74.50 30.00 L 74.50 29.00 L 74.50 28.00 L 74.00 27.50 L 73.50 27.00 L 73.50 26.00 L 73.00 25.50 L 72.50 26.00 L 72.50 27.00 L 72.50 28.00 L 72.00 28.50 L 71.50 29.00 L 71.50 30.00 L 71.00 30.50 L 70.50 31.00 L 70.00 31.50 L 69.00 31.50 L 68.00 31.50 L 67.00 31.50 L 66.00 31.50 L 65.00 31.50 L 64.00 31.50 L 63.00 31.50 L 62.00 31.50 L 61.00 31.50 L 60.00 31.50 L 59.00 31.50 L 58.00 31.50 L 57.00 31.50 L 56.00 31.50 L 55.00 31.50 L 54.00 31.50 L 53.00 31.50 L 52.00 31.50 L 51.00 31.50 L 50.00 31.50 L 49.00 31.50 L 48.00 31.50 L 47.00 31.50 L 46.00 31.50 L 45.00 31.50 L 44.00 31.50 L 43.00 31.50 L 42.00 31.50 L 41.00 31.50 L 40.00 31.50 L 39.50 32.00 L 39.50 33.00 L 39.50 34.00 L 39.50 35.00 L 39.50 36.00 L 39.50 37.00 L 39.50 38.00 L 39.50 39.00 L 39.50 40.00 L 39.50 41.00 L 39.50 42.00 L 39.50 43.00 L 39.50 44.00 L 40.00 44.50 L 41.00 44.50 L 42.00 44.50 L 43.00 44.50 L 44.00 44.50 L 45.00 44.50 L 46.00 44.50 L 47.00 44.50 L 48.00 44.50 L 49.00 44.50 L 50.00 44.50 L 51.00 44.50 L 51.50 45.00 L 51.50 46.00 L 51.50 47.00 L 51.50 48.00 L 51.00 48.50 L 50.00 48.50 L 49.00 48.50 L 48.00 48.50 L 47.00 48.50 L 46.00 48.50 L 45.00 48.50 L 44.00 48.50 L 43.00 48.50 L 42.00 48.50 L 41.00 48.50 L 40.00 48.50 L 39.50 49.00 L 39.50 50.00 L 39.50 51.00 L 39.50 52.00 L 39.50 53.00 L 39.50 54.00 L 39.50 55.00 L 39.50 56.00 L 39.50 57.00 L 39.50 58.00 L 40.00 58.50 L 41.00 58.50 L 42.00 58.50 L 43.00 58.50 L 44.00 58.50 L 45.00 58.50 L 46.00 58.50 L 47.00 58.50 L 48.00 58.50 L 49.00 58.50 L 50.00 58.50 L 51.00 58.50 L 52.00 58.50 L 52.50 59.00 L 52.50 60.00 L 52.50 61.00 L 52.00 61.50 L 51.00 61.50 L 50.00 61.50 L 49.00 61.50 L 48.00 61.50 L 47.00 61.50 L 46.00 61.50 L 45.00 61.50 L 44.00 61.50 L 43.00 61.50 L 42.00 61.50 L 41.00 61.50 L 40.00 61.50 L 39.00 61.50 L 38.00 61.50 L 37.00 61.50 L 36.00 61.50 L 35.00 61.50 L 34.50 61.00 L 34.50 60.00 L 34.50 59.00 L 34.50 58.00 L 34.50 57.00 L 34.50 56.00 L 34.50 55.00 L 34.50 54.00 L 34.50 53.00 L 34.50 52.00 L 34.50 51.00 L 34.50 50.00 L 34.50 49.00 L 34.50 48.00 L 34.50 47.00 L 34.50 46.00 L 34.50 45.00 L 34.50 44.00 L 34.50 43.00 L 34.50 42.00 L 34.50 41.00 L 34.50 40.00 L 34.50 39.00 L 34.50 38.00 L 34.50 37.00 L 34.50 36.00 L 34.50 35.00 L 34.50 34.00 L 34.50 33.00 L 34.50 32.00 L 34.50 31.00 L 34.50 30.00 L 34.50 29.00 L 34.50 28.00 L 35.00 27.50 L 36.00 27.50 L 37.00 27.50 L 38.00 27.50 L 39.00 27.50 L 40.00 27.50 L 41.00 27.50 L 42.00 27.50 L 43.00 27.50 L 44.00 27.50 L 45.00 27.50 L 46.00 27.50 L 47.00 27.50 L 48.00 27.50 L 49.00 27.50 L 50.00 27.50 L 51.00 27.50 L 52.00 27.50 L 53.00 27.50 L 54.00 27.50 L 55.00 27.50 L 56.00 27.50 L 57.00 27.50 L 58.00 27.50 L 59.00 27.50 L 60.00 27.50 L 61.00 27.50 L 62.00 27.50 L 63.00 27.50 L 64.00 27.50 L 65.00 27.50 L 66.00 27.50 L 67.00 27.50 L 68.00 27.50 L 68.50 27.00 L 68.50 26.00 L 69.00 25.50 L 69.50 25.00 L 69.50 24.00 L 69.50 23.00 L 70.00 22.50 L 70.50 22.00 L 70.50 21.00 L 71.00 20.50 L 71.50 20.00 L 71.50 19.00 L 72.00 18.50 L 72.50 18.00 L 72.50 17.00 L 72.50 16.00 L 73.00 15.50 L 73.50 16.00 L 73.50 17.00 L 74.00 17.50 L 74.50 18.00 L 74.50 19.00 L 74.50 20.00 L 75.00 20.50 L 75.50 21.00 L 75.50 22.00 L 76.00 22.50 L 76.50 23.00 L 76.50 24.00 L 76.50 25.00 L 77.00 25.50 L 77.50 26.00 L 77.50 27.00 L 78.00 27.50 L 78.50 28.00 L 78.50 29.00 L 78.50 30.00 L 79.00 30.50 L 79.50 30.00 L 80.00 29.50 L 80.50 29.00 L 80.50 28.00 L 81.00 27.50 L 82.00 27.50 L 83.00 27.50 L 84.00 27.50 L 85.00 27.50 L 86.00 27.50 L 87.00 27.50 L 88.00 27.50 L 89.00 27.50 L 90.00 27.50 L 91.00 27.50 L 92.00 27.50 L 93.00 27.50 L 94.00 27.50 L 95.00 27.50 L 96.00 27.50 L 97.00 27.50 L 98.00 27.50 L 99.00 27.50 L 100.00 27.50 L 101.00 27.50 L 102.00 27.50 L 103.00 27.50 L 104.00 27.50 L 105.00 27.50 L 106.00 27.50 L 107.00 27.50 L 108.00 27.50 L 109.00 27.50 L 110.00 27.50 L 111.00 27.50 L 112.00 27.50 L 113.00 27.50 L 114.00 27.50 L 115.00 27.50 L 116.00 27.50 L 117.00 27.50 L 118.00 27.50 L 119.00 27.50 L 120.00 27.50 L 121.00 27.50 L 122.00 27.50 L 123.00 27.50 L 124.00 27.50 L 125.00 27.50 L 126.00 27.50 L 127.00 27.50 L 128.00 27.50 L 129.00 27.50 L 129.50 28.00 L 130.00 28.50 L 131.00 28.50 L 131.50 29.00 L 132.00 29.50 L 132.50 30.00 L 133.00 30.50 L 133.50 31.00 L 134.00 31.50 L 134.50 32.00 L 135.00 32.50 L 135.50 33.00 L 135.50 34.00 L 136.00 34.50 L 136.50 35.00 L 136.50 36.00 L 136.50 37.00 L 136.50 38.00 L 136.50 39.00 L 136.50 40.00 L 136.50 41.00 L 136.00 41.50 L 135.50 42.00 L 135.50 43.00 L 135.00 43.50 L 134.50 44.00 L 134.00 44.50 L 133.50 45.00 L 133.00 45.50 L 132.50 46.00 L 132.00 46.50 L 131.50 47.00 L 131.00 47.50 L 130.00 47.50 L 129.00 47.50 L 128.50 48.00 L 128.00 48.50 L 127.50 49.00 L 128.00 49.50 L 128.50 50.00 L 128.50 51.00 L 129.00 51.50 L 129.50 52.00 L 130.00 52.50 L 130.50 53.00 L 131.00 53.50 L 131.50 54.00 L 131.50 55.00 L 132.00 55.50 L 132.50 56.00 L 133.00 56.50 L 133.50 57.00 L 133.50 58.00 L 134.00 58.50 L 134.50 59.00 L 135.00 59.50 L 135.50 60.00 L 136.00 60.50 L 136.50 61.00 L 136.00 61.50 Z
M 167.00 46.50 L 166.50 46.00 L 167.00 45.50 L 167.50 46.00 L 167.00 46.50 Z
M 157.00 49.50 L 156.50 49.00 L 157.00 48.50 L 157.50 49.00 L 157.00 49.50 Z
M 103.00 51.50 L 102.50 51.00 L 103.00 50.50 L 103.50 51.00 L 103.00 51.50 Z
M 178.00 51.50 L 177.50 51.00 L 178.00 50.50 L 178.50 51.00 L 178.00 51.50 Z
M 173.00 56.50 L 172.50 56.00 L 173.00 55.50 L 173.50 56.00 L 173.00 56.50 Z
M 65.00 57.50 L 64.50 57.00 L 65.00 56.50 L 65.50 57.00 L 65.00 57.50 Z
M 148.00 58.50 L 147.50 58.00 L 148.00 57.50 L 148.50 58.00 L 148.00 58.50 Z
M 183.00 58.50 L 182.50 58.00 L 183.00 57.50 L 183.50 58.00 L 183.00 58.50 Z" fill="#F04B23" fill-rule="evenodd"/>
  <path d="M 90.00 62.50 L 89.00 62.50 L 88.00 62.50 L 87.00 62.50 L 86.00 62.50 L 85.50 62.00 L 85.50 61.00 L 85.50 60.00 L 85.50 59.00 L 85.50 58.00 L 85.50 57.00 L 85.50 56.00 L 85.50 55.00 L 85.50 54.00 L 85.50 53.00 L 85.50 52.00 L 85.50 51.00 L 85.50 50.00 L 85.50 49.00 L 85.50 48.00 L 85.50 47.00 L 85.50 46.00 L 85.50 45.00 L 85.50 44.00 L 85.50 43.00 L 85.50 42.00 L 85.50 41.00 L 85.50 40.00 L 86.00 39.50 L 87.00 39.50 L 88.00 39.50 L 89.00 39.50 L 90.00 39.50 L 90.50 40.00 L 90.50 41.00 L 90.50 42.00 L 90.50 43.00 L 90.50 44.00 L 90.50 45.00 L 90.50 46.00 L 90.50 47.00 L 90.50 48.00 L 90.50 49.00 L 90.50 50.00 L 90.50 51.00 L 90.50 52.00 L 90.50 53.00 L 90.50 54.00 L 90.50 55.00 L 90.50 56.00 L 90.50 57.00 L 90.50 58.00 L 90.50 59.00 L 90.50 60.00 L 90.50 61.00 L 90.50 62.00 L 90.00 62.50 Z
M 189.00 62.50 L 188.00 62.50 L 187.00 62.50 L 186.00 62.50 L 185.50 62.00 L 185.50 61.00 L 185.00 60.50 L 184.50 61.00 L 184.00 61.50 L 183.00 61.50 L 182.50 62.00 L 182.00 62.50 L 181.00 62.50 L 180.00 62.50 L 179.00 62.50 L 178.00 62.50 L 177.50 62.00 L 177.00 61.50 L 176.50 61.00 L 176.00 60.50 L 175.50 60.00 L 175.00 59.50 L 174.50 59.00 L 174.00 58.50 L 173.50 58.00 L 173.50 57.00 L 173.50 56.00 L 173.00 55.50 L 172.50 55.00 L 172.50 54.00 L 172.50 53.00 L 172.50 52.00 L 173.00 51.50 L 173.50 51.00 L 173.50 50.00 L 173.50 49.00 L 174.00 48.50 L 174.50 48.00 L 175.00 47.50 L 175.50 47.00 L 176.00 46.50 L 176.50 46.00 L 177.00 45.50 L 178.00 45.50 L 179.00 45.50 L 180.00 45.50 L 181.00 45.50 L 182.00 45.50 L 183.00 45.50 L 184.00 45.50 L 184.50 46.00 L 185.00 46.50 L 185.50 46.00 L 185.50 45.00 L 185.50 44.00 L 185.50 43.00 L 185.50 42.00 L 185.50 41.00 L 185.50 40.00 L 186.00 39.50 L 187.00 39.50 L 188.00 39.50 L 189.00 39.50 L 189.50 40.00 L 189.50 41.00 L 189.50 42.00 L 189.50 43.00 L 189.50 44.00 L 189.50 45.00 L 189.50 46.00 L 189.50 47.00 L 189.50 48.00 L 189.50 49.00 L 189.50 50.00 L 189.50 51.00 L 189.50 52.00 L 189.50 53.00 L 189.50 54.00 L 189.50 55.00 L 189.50 56.00 L 189.50 57.00 L 189.50 58.00 L 189.50 59.00 L 189.50 60.00 L 189.50 61.00 L 189.50 62.00 L 189.00 62.50 Z
M 62.00 62.50 L 61.00 62.50 L 60.00 62.50 L 59.00 62.50 L 58.00 62.50 L 57.50 62.00 L 57.00 61.50 L 56.50 61.00 L 56.00 60.50 L 55.50 60.00 L 55.00 59.50 L 54.50 59.00 L 54.50 58.00 L 54.50 57.00 L 54.50 56.00 L 54.50 55.00 L 55.00 54.50 L 55.50 54.00 L 56.00 53.50 L 56.50 53.00 L 57.00 52.50 L 58.00 52.50 L 58.50 52.00 L 59.00 51.50 L 60.00 51.50 L 61.00 51.50 L 62.00 51.50 L 63.00 51.50 L 64.00 51.50 L 64.50 51.00 L 64.50 50.00 L 64.00 49.50 L 63.00 49.50 L 62.00 49.50 L 61.00 49.50 L 60.00 49.50 L 59.00 49.50 L 58.00 49.50 L 57.50 50.00 L 57.00 50.50 L 56.50 50.00 L 56.50 49.00 L 56.50 48.00 L 56.00 47.50 L 55.50 47.00 L 56.00 46.50 L 57.00 46.50 L 57.50 46.00 L 58.00 45.50 L 59.00 45.50 L 60.00 45.50 L 61.00 45.50 L 62.00 45.50 L 63.00 45.50 L 64.00 45.50 L 65.00 45.50 L 66.00 45.50 L 66.50 46.00 L 67.00 46.50 L 67.50 47.00 L 68.00 47.50 L 68.50 48.00 L 69.00 48.50 L 69.50 49.00 L 69.50 50.00 L 69.50 51.00 L 69.50 52.00 L 69.50 53.00 L 69.50 54.00 L 69.50 55.00 L 69.50 56.00 L 69.50 57.00 L 69.50 58.00 L 69.50 59.00 L 69.50 60.00 L 69.50 61.00 L 69.00 61.50 L 68.00 61.50 L 67.00 61.50 L 66.00 61.50 L 65.00 61.50 L 64.00 61.50 L 63.00 61.50 L 62.50 62.00 L 62.00 62.50 Z
M 77.00 61.50 L 76.00 61.50 L 75.00 61.50 L 74.00 61.50 L 73.50 61.00 L 73.50 60.00 L 73.50 59.00 L 73.50 58.00 L 73.50 57.00 L 73.50 56.00 L 73.50 55.00 L 73.50 54.00 L 73.50 53.00 L 73.50 52.00 L 73.50 51.00 L 73.50 50.00 L 73.50 49.00 L 73.50 48.00 L 73.50 47.00 L 73.50 46.00 L 74.00 45.50 L 75.00 45.50 L 76.00 45.50 L 77.00 45.50 L 77.50 46.00 L 77.50 47.00 L 78.00 47.50 L 78.50 47.00 L 79.00 46.50 L 79.50 46.00 L 80.00 45.50 L 81.00 45.50 L 82.00 45.50 L 83.00 45.50 L 83.50 46.00 L 83.50 47.00 L 83.50 48.00 L 83.50 49.00 L 83.00 49.50 L 82.00 49.50 L 81.00 49.50 L 80.50 50.00 L 80.00 50.50 L 79.50 51.00 L 79.00 51.50 L 78.50 52.00 L 78.00 52.50 L 77.50 53.00 L 77.50 54.00 L 77.50 55.00 L 77.50 56.00 L 77.50 57.00 L 77.50 58.00 L 77.50 59.00 L 77.50 60.00 L 77.50 61.00 L 77.00 61.50 Z
M 100.00 66.50 L 99.00 66.50 L 98.00 66.50 L 97.00 66.50 L 96.00 66.50 L 95.00 66.50 L 94.00 66.50 L 93.50 66.00 L 93.50 65.00 L 94.00 64.50 L 94.50 64.00 L 94.50 63.00 L 95.00 62.50 L 96.00 62.50 L 96.50 63.00 L 97.00 63.50 L 97.50 63.00 L 98.00 62.50 L 98.50 62.00 L 98.50 61.00 L 98.50 60.00 L 98.00 59.50 L 97.50 59.00 L 97.50 58.00 L 97.50 57.00 L 97.00 56.50 L 96.50 56.00 L 96.50 55.00 L 96.00 54.50 L 95.50 54.00 L 95.50 53.00 L 95.50 52.00 L 95.00 51.50 L 94.50 51.00 L 94.50 50.00 L 94.00 49.50 L 93.50 49.00 L 93.50 48.00 L 93.00 47.50 L 92.50 47.00 L 92.50 46.00 L 93.00 45.50 L 94.00 45.50 L 95.00 45.50 L 96.00 45.50 L 97.00 45.50 L 97.50 46.00 L 97.50 47.00 L 98.00 47.50 L 98.50 48.00 L 98.50 49.00 L 98.50 50.00 L 99.00 50.50 L 99.50 51.00 L 99.50 52.00 L 99.50 53.00 L 100.00 53.50 L 100.50 54.00 L 100.50 55.00 L 101.00 55.50 L 101.50 55.00 L 101.50 54.00 L 102.00 53.50 L 102.50 53.00 L 102.50 52.00 L 103.00 51.50 L 103.50 51.00 L 103.50 50.00 L 103.50 49.00 L 104.00 48.50 L 104.50 48.00 L 104.50 47.00 L 104.50 46.00 L 105.00 45.50 L 106.00 45.50 L 107.00 45.50 L 108.00 45.50 L 109.00 45.50 L 109.50 46.00 L 109.50 47.00 L 109.00 47.50 L 108.50 48.00 L 108.50 49.00 L 108.00 49.50 L 107.50 50.00 L 107.50 51.00 L 107.50 52.00 L 107.00 52.50 L 106.50 53.00 L 106.50 54.00 L 106.00 54.50 L 105.50 55.00 L 105.50 56.00 L 105.50 57.00 L 105.00 57.50 L 104.50 58.00 L 104.50 59.00 L 104.50 60.00 L 104.00 60.50 L 103.50 61.00 L 103.50 62.00 L 103.00 62.50 L 102.50 63.00 L 102.50 64.00 L 102.00 64.50 L 101.50 65.00 L 101.00 65.50 L 100.50 66.00 L 100.00 66.50 Z
M 148.00 62.50 L 147.00 62.50 L 146.00 62.50 L 145.00 62.50 L 144.00 62.50 L 143.00 62.50 L 142.50 62.00 L 142.00 61.50 L 141.00 61.50 L 140.50 61.00 L 140.00 60.50 L 139.50 60.00 L 139.00 59.50 L 138.50 59.00 L 138.50 58.00 L 138.00 57.50 L 137.50 57.00 L 137.50 56.00 L 137.50 55.00 L 137.50 54.00 L 137.50 53.00 L 137.50 52.00 L 137.50 51.00 L 137.50 50.00 L 138.00 49.50 L 138.50 49.00 L 139.00 48.50 L 139.50 48.00 L 140.00 47.50 L 140.50 47.00 L 141.00 46.50 L 141.50 46.00 L 142.00 45.50 L 143.00 45.50 L 144.00 45.50 L 145.00 45.50 L 146.00 45.50 L 147.00 45.50 L 148.00 45.50 L 149.00 45.50 L 149.50 46.00 L 150.00 46.50 L 150.50 47.00 L 151.00 47.50 L 151.50 48.00 L 152.00 48.50 L 152.50 49.00 L 152.50 50.00 L 152.50 51.00 L 153.00 51.50 L 153.50 52.00 L 153.50 53.00 L 153.50 54.00 L 153.50 55.00 L 153.00 55.50 L 152.00 55.50 L 151.00 55.50 L 150.00 55.50 L 149.00 55.50 L 148.00 55.50 L 147.00 55.50 L 146.00 55.50 L 145.00 55.50 L 144.00 55.50 L 143.00 55.50 L 142.00 55.50 L 141.50 56.00 L 142.00 56.50 L 142.50 57.00 L 143.00 57.50 L 143.50 58.00 L 144.00 58.50 L 145.00 58.50 L 146.00 58.50 L 147.00 58.50 L 148.00 58.50 L 148.50 58.00 L 149.00 57.50 L 149.50 57.00 L 150.00 56.50 L 150.50 57.00 L 151.00 57.50 L 151.50 58.00 L 152.00 58.50 L 152.50 59.00 L 152.00 59.50 L 151.50 60.00 L 151.00 60.50 L 150.50 61.00 L 150.00 61.50 L 149.00 61.50 L 148.50 62.00 L 148.00 62.50 Z
M 163.00 62.50 L 162.00 62.50 L 161.00 62.50 L 160.00 62.50 L 159.00 62.50 L 158.50 62.00 L 158.00 61.50 L 157.00 61.50 L 156.50 61.00 L 156.00 60.50 L 155.50 60.00 L 155.50 59.00 L 155.50 58.00 L 155.00 57.50 L 154.50 57.00 L 155.00 56.50 L 155.50 56.00 L 155.50 55.00 L 155.50 54.00 L 156.00 53.50 L 156.50 53.00 L 157.00 52.50 L 158.00 52.50 L 158.50 52.00 L 159.00 51.50 L 160.00 51.50 L 161.00 51.50 L 162.00 51.50 L 163.00 51.50 L 164.00 51.50 L 165.00 51.50 L 165.50 51.00 L 165.00 50.50 L 164.50 50.00 L 164.00 49.50 L 163.00 49.50 L 162.00 49.50 L 161.00 49.50 L 160.00 49.50 L 159.00 49.50 L 158.50 50.00 L 158.00 50.50 L 157.50 50.00 L 157.50 49.00 L 157.00 48.50 L 156.50 48.00 L 156.50 47.00 L 157.00 46.50 L 158.00 46.50 L 158.50 46.00 L 159.00 45.50 L 160.00 45.50 L 161.00 45.50 L 162.00 45.50 L 163.00 45.50 L 164.00 45.50 L 165.00 45.50 L 166.00 45.50 L 166.50 46.00 L 167.00 46.50 L 168.00 46.50 L 168.50 47.00 L 169.00 47.50 L 169.50 48.00 L 169.50 49.00 L 169.50 50.00 L 170.00 50.50 L 170.50 51.00 L 170.50 52.00 L 170.50 53.00 L 170.50 54.00 L 170.50 55.00 L 170.50 56.00 L 170.50 57.00 L 170.50 58.00 L 170.50 59.00 L 170.50 60.00 L 170.50 61.00 L 170.00 61.50 L 169.00 61.50 L 168.00 61.50 L 167.00 61.50 L 166.00 61.50 L 165.00 61.50 L 164.00 61.50 L 163.50 62.00 L 163.00 62.50 Z
M 148.50 52.00 L 148.50 51.00 L 148.00 50.50 L 147.50 50.00 L 147.00 49.50 L 146.50 49.00 L 146.00 48.50 L 145.00 48.50 L 144.50 49.00 L 144.00 49.50 L 143.00 49.50 L 142.50 50.00 L 142.50 51.00 L 142.00 51.50 L 141.50 52.00 L 142.00 52.50 L 143.00 52.50 L 144.00 52.50 L 145.00 52.50 L 146.00 52.50 L 147.00 52.50 L 148.00 52.50 L 148.50 52.00 Z
M 183.50 58.00 L 184.00 57.50 L 184.50 57.00 L 184.50 56.00 L 185.00 55.50 L 185.50 55.00 L 185.50 54.00 L 185.50 53.00 L 185.50 52.00 L 185.00 51.50 L 184.50 51.00 L 184.00 50.50 L 183.50 50.00 L 183.00 49.50 L 182.00 49.50 L 181.00 49.50 L 180.00 49.50 L 179.00 49.50 L 178.50 50.00 L 178.00 50.50 L 177.50 51.00 L 177.50 52.00 L 177.50 53.00 L 177.50 54.00 L 177.50 55.00 L 177.50 56.00 L 178.00 56.50 L 178.50 57.00 L 179.00 57.50 L 179.50 58.00 L 180.00 58.50 L 181.00 58.50 L 182.00 58.50 L 183.00 58.50 L 183.50 58.00 Z
M 64.50 58.00 L 65.00 57.50 L 65.50 57.00 L 65.50 56.00 L 65.00 55.50 L 64.50 55.00 L 64.00 54.50 L 63.00 54.50 L 62.00 54.50 L 61.00 54.50 L 60.50 55.00 L 60.00 55.50 L 59.50 56.00 L 59.00 56.50 L 58.50 57.00 L 59.00 57.50 L 59.50 58.00 L 60.00 58.50 L 61.00 58.50 L 62.00 58.50 L 63.00 58.50 L 64.00 58.50 L 64.50 58.00 Z
M 164.50 58.00 L 165.00 57.50 L 165.50 57.00 L 165.50 56.00 L 165.00 55.50 L 164.50 55.00 L 164.00 54.50 L 163.00 54.50 L 162.00 54.50 L 161.50 55.00 L 161.00 55.50 L 160.00 55.50 L 159.50 56.00 L 159.50 57.00 L 159.50 58.00 L 160.00 58.50 L 161.00 58.50 L 162.00 58.50 L 163.00 58.50 L 164.00 58.50 L 164.50 58.00 Z" fill="#1E1E1E" fill-rule="evenodd"/>
</svg>
